<?xml version="1.0" encoding="UTF-8" standalone="no"?>
<svg
   width="512"
   height="512"
   viewBox="0 0 32 32"
   version="1.1"
   id="svg26"
   sodipodi:docname="icon.svg"
   inkscape:version="1.3.2 (091e20e, 2023-11-25, custom)"
   xmlns:inkscape="http://www.inkscape.org/namespaces/inkscape"
   xmlns:sodipodi="http://sodipodi.sourceforge.net/DTD/sodipodi-0.dtd"
   xmlns="http://www.w3.org/2000/svg"
   xmlns:svg="http://www.w3.org/2000/svg">
  <sodipodi:namedview
     id="namedview26"
     pagecolor="#ffffff"
     bordercolor="#000000"
     borderopacity="0.25"
     inkscape:showpageshadow="2"
     inkscape:pageopacity="0.0"
     inkscape:pagecheckerboard="0"
     inkscape:deskcolor="#d1d1d1"
     inkscape:zoom="0.76855469"
     inkscape:cx="337.64676"
     inkscape:cy="281.69759"
     inkscape:window-width="1920"
     inkscape:window-height="1001"
     inkscape:window-x="-9"
     inkscape:window-y="-9"
     inkscape:window-maximized="1"
     inkscape:current-layer="svg26" />
  <!-- Metà sinistra: Tazzina da caffè -->
  <defs
     id="defs2">
    <clipPath
       id="leftHalf">
      <rect
         x="0"
         y="0"
         width="16"
         height="32"
         id="rect1" />
    </clipPath>
    <clipPath
       id="rightHalf">
      <rect
         x="16"
         y="0"
         width="16"
         height="32"
         id="rect2" />
    </clipPath>
  </defs>
  <!-- Tazzina (metà sinistra) -->
  <!-- Calcolatrice (metà destra) -->
  <g
     clip-path="url(#rightHalf)"
     id="g26"
     transform="matrix(1.2193305,0,0,1.1353081,-6.5532697,-2.1649296)">
    <!-- Corpo calcolatrice -->
    <rect
       x="17"
       y="6"
       width="12"
       height="20"
       rx="2"
       fill="#2c3e50"
       stroke="#1a252f"
       stroke-width="1"
       id="rect6" />
    <!-- Display -->
    <rect
       x="18.5"
       y="8"
       width="9"
       height="3"
       rx="0.5"
       fill="#000000"
       stroke="#333333"
       stroke-width="0.5"
       id="rect7" />
    <text
       x="27.5"
       y="10.5"
       font-family="monospace"
       font-size="2px"
       fill="#00ff00"
       text-anchor="end"
       id="text7">123</text>
    <!-- Pulsanti -->
    <!-- Riga 1 -->
    <rect
       x="19"
       y="12.5"
       width="1.8"
       height="1.8"
       rx="0.30000001"
       fill="#95a5a6"
       id="rect8" />
    <rect
       x="21.1"
       y="12.5"
       width="1.8"
       height="1.8"
       rx="0.30000001"
       fill="#95a5a6"
       id="rect9" />
    <rect
       x="23.200001"
       y="12.5"
       width="1.8"
       height="1.8"
       rx="0.30000001"
       fill="#95a5a6"
       id="rect10" />
    <rect
       x="25.299999"
       y="12.5"
       width="1.8"
       height="1.8"
       rx="0.30000001"
       fill="#e74c3c"
       id="rect11" />
    <!-- Riga 2 -->
    <rect
       x="19"
       y="14.6"
       width="1.8"
       height="1.8"
       rx="0.30000001"
       fill="#ecf0f1"
       id="rect12" />
    <rect
       x="21.1"
       y="14.6"
       width="1.8"
       height="1.8"
       rx="0.30000001"
       fill="#ecf0f1"
       id="rect13" />
    <rect
       x="23.200001"
       y="14.6"
       width="1.8"
       height="1.8"
       rx="0.30000001"
       fill="#ecf0f1"
       id="rect14" />
    <rect
       x="25.299999"
       y="14.6"
       width="1.8"
       height="1.8"
       rx="0.30000001"
       fill="#3498db"
       id="rect15" />
    <!-- Riga 3 -->
    <rect
       x="19"
       y="16.700001"
       width="1.8"
       height="1.8"
       rx="0.30000001"
       fill="#ecf0f1"
       id="rect16" />
    <rect
       x="21.1"
       y="16.700001"
       width="1.8"
       height="1.8"
       rx="0.30000001"
       fill="#ecf0f1"
       id="rect17" />
    <rect
       x="23.200001"
       y="16.700001"
       width="1.8"
       height="1.8"
       rx="0.30000001"
       fill="#ecf0f1"
       id="rect18" />
    <rect
       x="25.299999"
       y="16.700001"
       width="1.8"
       height="1.8"
       rx="0.30000001"
       fill="#3498db"
       id="rect19" />
    <!-- Riga 4 -->
    <rect
       x="19"
       y="18.799999"
       width="1.8"
       height="1.8"
       rx="0.30000001"
       fill="#ecf0f1"
       id="rect20" />
    <rect
       x="21.1"
       y="18.799999"
       width="1.8"
       height="1.8"
       rx="0.30000001"
       fill="#ecf0f1"
       id="rect21" />
    <rect
       x="23.200001"
       y="18.799999"
       width="1.8"
       height="1.8"
       rx="0.30000001"
       fill="#ecf0f1"
       id="rect22" />
    <rect
       x="25.299999"
       y="18.799999"
       width="1.8"
       height="1.8"
       rx="0.30000001"
       fill="#27ae60"
       id="rect23" />
    <!-- Riga 5 -->
    <rect
       x="19"
       y="20.9"
       width="4"
       height="1.8"
       rx="0.30000001"
       fill="#ecf0f1"
       id="rect24" />
    <rect
       x="23.200001"
       y="20.9"
       width="1.8"
       height="1.8"
       rx="0.30000001"
       fill="#ecf0f1"
       id="rect25" />
    <rect
       x="25.299999"
       y="20.9"
       width="1.8"
       height="1.8"
       rx="0.30000001"
       fill="#27ae60"
       id="rect26" />
  </g>
  <g
     clip-path="url(#leftHalf)"
     id="g6"
     transform="matrix(1.4449624,0.26625977,-0.32799028,1.1730084,4.2644586,-3.1862564)">
    <!-- Corpo tazzina -->
    <path
       d="m 4,8 h 8 c 0,0 0,12 0,14 0,2 -2,4 -4,4 -2,0 -4,-2 -4,-4 z"
       fill="#8b4513"
       stroke="#654321"
       stroke-width="1"
       id="path2" />
    <!-- Manico -->
    <path
       d="m 12,12 c 2,0 3,1 3,3 0,2 -1,3 -3,3"
       fill="none"
       stroke="#654321"
       stroke-width="1.5"
       id="path3" />
    <!-- Caffè -->
    <ellipse
       cx="8"
       cy="10"
       rx="3.5"
       ry="1"
       fill="#2f1b14"
       id="ellipse3" />
    <!-- Vapore -->
    <path
       d="M 6,6 C 6,5 6,4 6,4"
       stroke="#e0e0e0"
       stroke-width="1"
       stroke-linecap="round"
       id="path4" />
    <path
       d="M 8,5 C 8,4 8,3 8,3"
       stroke="#e0e0e0"
       stroke-width="1"
       stroke-linecap="round"
       id="path5" />
    <path
       d="M 10,6 C 10,5 10,4 10,4"
       stroke="#e0e0e0"
       stroke-width="1"
       stroke-linecap="round"
       id="path6" />
  </g>
</svg>
